<svg width="29" height="31" viewBox="0 0 29 31" fill="none" xmlns="http://www.w3.org/2000/svg">
<path fill-rule="evenodd" clip-rule="evenodd" d="M6.84234 7.6642C6.84234 3.51201 10.2084 0.145996 14.3605 0.145996C18.5127 0.145996 21.8787 3.51201 21.8787 7.6642C21.8787 11.8164 18.5127 15.1824 14.3605 15.1824C10.2084 15.1824 6.84234 11.8164 6.84234 7.6642ZM14.3605 2.79948C11.6738 2.79948 9.49582 4.97749 9.49582 7.6642C9.49582 10.3509 11.6738 12.5289 14.3605 12.5289C17.0472 12.5289 19.2253 10.3509 19.2253 7.6642C19.2253 4.97749 17.0472 2.79948 14.3605 2.79948Z" fill="black"/>
<path fill-rule="evenodd" clip-rule="evenodd" d="M7.28459 20.4894C5.08637 20.4894 3.30436 22.2714 3.30436 24.4696V26.5716C3.30436 26.6036 3.32756 26.6309 3.35915 26.6361C10.6452 27.8257 18.0759 27.8256 25.3619 26.6361C25.3935 26.6309 25.4167 26.6036 25.4167 26.5716V24.4696C25.4167 22.2714 23.6347 20.4894 21.4365 20.4894H20.8335C20.7869 20.4894 20.7405 20.4967 20.6962 20.5112L19.1651 21.0112C16.0432 22.0306 12.6779 22.0306 9.55594 21.0112L8.02485 20.5112C7.98053 20.4967 7.9342 20.4894 7.88758 20.4894H7.28459ZM0.650879 24.4696C0.650879 20.8059 3.62089 17.8359 7.28459 17.8359H7.88758C8.21394 17.8359 8.53826 17.8875 8.8485 17.9888L10.3796 18.4887C12.9663 19.3334 15.7547 19.3334 18.3415 18.4887L19.8726 17.9888C20.1828 17.8875 20.5071 17.8359 20.8335 17.8359H21.4365C25.1002 17.8359 28.0702 20.8059 28.0702 24.4696V26.5716C28.0702 27.9041 27.1045 29.0402 25.7895 29.2549C18.2203 30.4907 10.5008 30.4907 2.93159 29.2549C1.61654 29.0402 0.650879 27.9041 0.650879 26.5716V24.4696Z" fill="black"/>
</svg>
