<svg width="20" height="20" viewBox="0 0 20 20" fill="none" xmlns="http://www.w3.org/2000/svg">
<path fill-rule="evenodd" clip-rule="evenodd" d="M0.153076 2.78782C0.153076 1.3366 1.32952 0.160156 2.78074 0.160156H16.4446C17.8958 0.160156 19.0722 1.3366 19.0722 2.78782V16.4517C19.0722 17.9029 17.8958 19.0793 16.4446 19.0793H2.78074C1.32952 19.0793 0.153076 17.9029 0.153076 16.4517V2.78782ZM2.78093 1.21095H12.766V18.028H2.78093C1.9102 18.028 1.20433 17.3221 1.20433 16.4514V2.78755C1.20433 1.91682 1.9102 1.21095 2.78093 1.21095ZM13.8171 18.028V1.21095H16.4448C17.3155 1.21095 18.0214 1.91682 18.0214 2.78755V16.4514C18.0214 17.3221 17.3155 18.028 16.4448 18.028H13.8171ZM3.30639 4.88968C3.30639 5.17992 3.54168 5.41521 3.83192 5.41521H10.1383C10.4286 5.41521 10.6638 5.17992 10.6638 4.88968C10.6638 4.59943 10.4286 4.36414 10.1383 4.36414H3.83192C3.54168 4.36414 3.30639 4.59943 3.30639 4.88968ZM3.83192 7.51749C3.54168 7.51749 3.30639 7.2822 3.30639 6.99195C3.30639 6.70171 3.54168 6.46642 3.83192 6.46642H10.1383C10.4286 6.46642 10.6638 6.70171 10.6638 6.99195C10.6638 7.2822 10.4286 7.51749 10.1383 7.51749H3.83192ZM3.30639 9.09423C3.30639 9.38447 3.54168 9.61976 3.83192 9.61976H8.03618C8.32643 9.61976 8.56172 9.38447 8.56172 9.09423C8.56172 8.80399 8.32643 8.5687 8.03618 8.5687H3.83192C3.54168 8.5687 3.30639 8.80399 3.30639 9.09423ZM3.83192 12.773C3.54168 12.773 3.30639 12.5377 3.30639 12.2474C3.30639 11.9572 3.54168 11.7219 3.83192 11.7219H10.1383C10.4286 11.7219 10.6638 11.9572 10.6638 12.2474C10.6638 12.5377 10.4286 12.773 10.1383 12.773H3.83192ZM3.30639 14.3493C3.30639 14.6395 3.54168 14.8748 3.83192 14.8748H8.03618C8.32643 14.8748 8.56172 14.6395 8.56172 14.3493C8.56172 14.059 8.32643 13.8237 8.03618 13.8237H3.83192C3.54168 13.8237 3.30639 14.059 3.30639 14.3493Z" fill="white"/>
</svg>
