<svg width="32" height="34" viewBox="0 0 32 34" fill="none" xmlns="http://www.w3.org/2000/svg">
<path d="M12.4709 20.4391C13.2037 20.4391 13.7977 21.0331 13.7977 21.7658V25.3038C13.7977 26.0365 13.2037 26.6305 12.4709 26.6305C11.7382 26.6305 11.1442 26.0365 11.1442 25.3038V21.7658C11.1442 21.0331 11.7382 20.4391 12.4709 20.4391Z" fill="black"/>
<path d="M20.8736 21.7658C20.8736 21.0331 20.2796 20.4391 19.5469 20.4391C18.8142 20.4391 18.2202 21.0331 18.2202 21.7658V25.3038C18.2202 26.0365 18.8142 26.6305 19.5469 26.6305C20.2796 26.6305 20.8736 26.0365 20.8736 25.3038V21.7658Z" fill="black"/>
<path fill-rule="evenodd" clip-rule="evenodd" d="M11.8509 2.97031C12.2173 2.33574 11.9999 1.52432 11.3653 1.15795C10.7308 0.791582 9.91933 1.009 9.55296 1.64357L6.01498 7.77153C5.96198 7.86333 5.9212 7.95883 5.89213 8.05616H5.39499C2.70828 8.05616 0.530273 10.2342 0.530273 12.9209C0.530273 14.4407 1.22719 15.7977 2.31889 16.6898L3.49869 24.8L4.28898 28.5028C4.76248 30.7213 6.57355 32.4064 8.82039 32.7191C13.5898 33.3827 18.4281 33.3827 23.1975 32.7191C25.4443 32.4064 27.2554 30.7213 27.7289 28.5028L28.5191 24.8L29.6989 16.6898C30.7906 15.7977 31.4876 14.4407 31.4876 12.9209C31.4876 10.2342 29.3096 8.05616 26.6228 8.05616H26.1257C26.0966 7.95883 26.0559 7.86333 26.0029 7.77153L22.4649 1.64357C22.0985 1.009 21.2871 0.791582 20.6525 1.15795C20.0179 1.52432 19.8005 2.33574 20.1669 2.97031L23.1032 8.05616H8.91463L11.8509 2.97031ZM26.8589 17.78C26.7807 17.7837 26.702 17.7856 26.6228 17.7856H5.39499C5.31583 17.7856 5.23712 17.7837 5.15889 17.78L6.11196 24.3316L6.88401 27.9489C7.12456 29.076 8.04463 29.9321 9.18608 30.0909C13.7128 30.7207 18.305 30.7207 22.8318 30.0909C23.9732 29.9321 24.8933 29.076 25.1338 27.9489L25.9059 24.3316L26.8589 17.78ZM3.18376 12.9209C3.18376 11.6996 4.17376 10.7096 5.39499 10.7096H26.6228C27.8441 10.7096 28.8341 11.6996 28.8341 12.9209C28.8341 14.1421 27.8441 15.1321 26.6228 15.1321H5.39499C4.17376 15.1321 3.18376 14.1421 3.18376 12.9209Z" fill="black"/>
</svg>
