<svg width="136" height="34" viewBox="0 0 136 34" fill="none" xmlns="http://www.w3.org/2000/svg">
<path d="M0.0423584 0.0424805H135.783L115.572 33.4711H0.0423584V0.0424805Z" fill="#91D9F8"/>
<path opacity="0.9" d="M42.521 16.3726C42.4362 17.5443 42.0024 18.4668 41.2196 19.1399C40.4418 19.813 39.4146 20.1496 38.1382 20.1496C36.7421 20.1496 35.6426 19.6809 34.8399 18.7435C34.0421 17.8011 33.6432 16.5097 33.6432 14.8693V14.2036C33.6432 13.1566 33.8277 12.2341 34.1967 11.4363C34.5656 10.6386 35.0917 10.0278 35.7748 9.60395C36.4629 9.17514 37.2606 8.96074 38.1681 8.96074C39.4246 8.96074 40.4368 9.2973 41.2047 9.97043C41.9725 10.6436 42.4163 11.5884 42.5359 12.805H40.2922C40.2373 12.102 40.0404 11.5934 39.7013 11.2793C39.3673 10.9602 38.8562 10.8006 38.1681 10.8006C37.4202 10.8006 36.8593 11.0699 36.4853 11.6084C36.1163 12.1419 35.9269 12.9721 35.9169 14.0989V14.9216C35.9169 16.0984 36.0939 16.9585 36.4479 17.502C36.8069 18.0454 37.3703 18.3172 38.1382 18.3172C38.8313 18.3172 39.3473 18.1601 39.6864 17.846C40.0304 17.5269 40.2274 17.0358 40.2772 16.3726H42.521ZM46.5639 17.0158H45.6963V20H43.5349V11.9075H45.6963V14.9516H46.4667L48.2318 11.9075H50.9617L48.3141 15.7593L51.2085 20H48.329L46.5639 17.0158ZM56.4406 11.9075H58.6021V20H56.4406V15.0039L53.7332 20H51.5642V11.9075H53.7332V16.8961L56.4406 11.9075ZM59.9077 18.2574C60.3963 17.7388 60.7279 17.2252 60.9024 16.7166C61.0769 16.2081 61.1742 15.4876 61.1941 14.5552L61.2539 11.9075H67.2074V18.2574H68.3741V22.4307H66.2126V20H61.4185V22.4307H59.2121V18.2574H59.9077ZM62.4581 18.2574H65.0534V13.6951H63.3705L63.3556 14.6673C63.3107 16.1532 63.0115 17.3499 62.4581 18.2574ZM72.0506 17.0158H71.183V20H69.0215V11.9075H71.183V14.9516H71.9533L73.7184 11.9075H76.4483L73.8007 15.7593L76.6951 20H73.8157L72.0506 17.0158ZM81.7403 20C81.6406 19.8055 81.5683 19.5637 81.5234 19.2745C80.9999 19.8579 80.3192 20.1496 79.4816 20.1496C78.6888 20.1496 78.0306 19.9202 77.5071 19.4615C76.9885 19.0028 76.7292 18.4244 76.7292 17.7263C76.7292 16.8687 77.0459 16.2106 77.6791 15.7518C78.3173 15.2931 79.2373 15.0613 80.4389 15.0563H81.4336V14.5926C81.4336 14.2186 81.3364 13.9194 81.142 13.6951C80.9525 13.4707 80.6508 13.3585 80.237 13.3585C79.873 13.3585 79.5863 13.4457 79.3769 13.6203C79.1724 13.7948 79.0702 14.0341 79.0702 14.3383H76.9087C76.9087 13.8696 77.0533 13.4358 77.3425 13.0369C77.6317 12.638 78.0406 12.3264 78.5691 12.102C79.0976 11.8726 79.691 11.7579 80.3492 11.7579C81.3464 11.7579 82.1367 12.0097 82.7201 12.5133C83.3084 13.012 83.6026 13.715 83.6026 14.6225V18.1302C83.6076 18.8981 83.7148 19.479 83.9242 19.8729V20H81.7403ZM79.9528 18.4967C80.2719 18.4967 80.5661 18.4269 80.8353 18.2873C81.1046 18.1427 81.304 17.9507 81.4336 17.7114V16.3202H80.6259C79.5439 16.3202 78.968 16.6942 78.8982 17.4421L78.8907 17.5693C78.8907 17.8385 78.9855 18.0604 79.1749 18.2349C79.3644 18.4094 79.6237 18.4967 79.9528 18.4967Z" fill="#1C1C1C"/>
</svg>
